<svg data-v-fde0c5aa="" xmlns="http://www.w3.org/2000/svg" viewBox="0 0 300 300" class="iconLeft"><!----><defs data-v-fde0c5aa=""><!----></defs><rect data-v-fde0c5aa="" fill="transparent" x="0" y="0" width="300px" height="300px" class="logo-background-square"></rect><defs data-v-fde0c5aa=""><!----></defs><g data-v-fde0c5aa="" id="d2feff5b-9776-46e5-a052-9d930f40f5c1" fill="#000000" transform="matrix(2.5520361821977007,0,0,2.5520361821977007,116.29483481658922,128.56289582615818)"><path d="M4.00 13.34C4.91 13.34 5.66 13.07 6.27 12.60L5.45 11.58C5.09 11.93 4.58 12.13 4.03 12.13C2.73 12.13 1.95 11.14 1.95 9.84C1.95 8.55 2.73 7.57 4.03 7.57C4.58 7.57 5.09 7.77 5.45 8.12L6.27 7.10C5.66 6.64 4.91 6.36 4.00 6.36C1.94 6.36 0.51 7.89 0.51 9.84C0.51 11.81 1.94 13.34 4.00 13.34ZM13.66 9.70C13.66 7.73 12.34 6.36 10.41 6.36C8.41 6.36 7 7.89 7 9.84C7 11.80 8.40 13.31 10.57 13.31C11.72 13.31 12.69 12.92 13.29 12.25L12.31 11.46C11.89 11.94 11.32 12.19 10.56 12.19C9.32 12.19 8.59 11.33 8.49 10.15L13.66 10.15ZM10.41 7.50C11.45 7.50 12.12 8.12 12.26 9.17L8.55 9.17C8.75 8.17 9.44 7.50 10.41 7.50ZM18.51 6.36C17.57 6.36 16.86 6.74 16.46 7.32L16.29 6.53L15.05 6.53L15.05 13.15L16.46 13.15L16.46 9.11C16.58 7.95 17.37 7.57 18.11 7.57C19.13 7.57 19.57 8.30 19.57 9.38L19.57 13.15L20.99 13.15L20.99 9.06C20.99 7 19.66 6.36 18.51 6.36ZM25.74 11.93C25.65 11.99 25.42 12.06 25.14 12.06C24.69 12.06 24.41 11.80 24.41 11.20L24.41 7.67L25.81 7.67L25.81 6.53L24.41 6.53L24.41 4.64L23.00 4.64L23.00 6.53L22.12 6.53L22.12 7.67L23.00 7.67L23.00 11.32C23.00 12.91 23.99 13.27 24.81 13.27C25.33 13.27 25.75 13.17 25.93 13.08ZM27.01 10.03L30.65 10.03L30.65 8.87L27.01 8.87ZM35.41 13.34C36.33 13.34 37.07 13.07 37.68 12.60L36.87 11.58C36.50 11.93 35.99 12.13 35.44 12.13C34.14 12.13 33.37 11.14 33.37 9.84C33.37 8.55 34.14 7.57 35.44 7.57C35.99 7.57 36.50 7.77 36.87 8.12L37.68 7.10C37.07 6.64 36.33 6.36 35.41 6.36C33.35 6.36 31.92 7.89 31.92 9.84C31.92 11.81 33.35 13.34 35.41 13.34ZM41.97 13.34C44.06 13.34 45.50 11.81 45.50 9.84C45.50 7.89 44.06 6.36 41.97 6.36C39.86 6.36 38.41 7.89 38.41 9.84C38.41 11.81 39.86 13.34 41.97 13.34ZM41.97 12.13C40.75 12.13 39.89 11.14 39.89 9.84C39.89 8.56 40.75 7.57 41.97 7.57C43.18 7.57 44.04 8.56 44.04 9.84C44.04 11.14 43.18 12.13 41.97 12.13ZM47.75 5.26C48.26 5.26 48.66 4.86 48.66 4.36C48.66 3.86 48.26 3.46 47.75 3.46C47.24 3.46 46.83 3.86 46.83 4.36C46.83 4.86 47.24 5.26 47.75 5.26ZM47.06 13.15L48.45 13.15L48.45 6.53L47.06 6.53ZM53.83 6.36C52.89 6.36 52.18 6.74 51.79 7.32L51.61 6.53L50.37 6.53L50.37 13.15L51.79 13.15L51.79 9.11C51.90 7.95 52.69 7.57 53.43 7.57C54.45 7.57 54.89 8.30 54.89 9.38L54.89 13.15L56.31 13.15L56.31 9.06C56.31 7 54.98 6.36 53.83 6.36Z"></path></g><defs data-v-fde0c5aa=""><linearGradient data-v-fde0c5aa="" gradientTransform="rotate(25)" id="61a93ba6-e869-4b75-98f6-99b0e84a39fd" x1="0%" y1="0%" x2="100%" y2="0%"><stop data-v-fde0c5aa="" offset="0%" stop-color="#288642" stop-opacity="1"></stop><stop data-v-fde0c5aa="" offset="100%" stop-color="#27FDFD" stop-opacity="1"></stop></linearGradient></defs><g data-v-fde0c5aa="" id="8d86357f-d225-48bc-a0dc-a5533fe247e5" stroke="none" fill="url(#61a93ba6-e869-4b75-98f6-99b0e84a39fd)" transform="matrix(2.018636663911623,0,0,2.018636663911623,40,117.70181337741403)"><path d="M16 19.586l7.496-12.954H8.504zM7.496 12.414L0 25.368h14.992zM24.504 12.414l-7.496 12.954H32z"></path></g><!----></svg>